<svg width="128" height="128" viewBox="0 0 128 128" fill="none" xmlns="http://www.w3.org/2000/svg">
<rect width="128" height="128" fill="#1E1E1E"/>
<path d="M27.82 54.09C30.1 54.09 32.07 54.52 33.73 55.38C35.41 56.22 36.69 57.43 37.57 59.01C38.47 60.59 38.92 62.45 38.92 64.59C38.92 66.73 38.47 68.59 37.57 70.17C36.69 71.73 35.41 72.93 33.73 73.77C32.07 74.59 30.1 75 27.82 75H21.31V54.09H27.82ZM27.82 72.75C30.52 72.75 32.58 72.04 34 70.62C35.42 69.18 36.13 67.17 36.13 64.59C36.13 61.99 35.41 59.96 33.97 58.5C32.55 57.04 30.5 56.31 27.82 56.31H24.04V72.75H27.82ZM41.5009 64.53C41.5009 62.49 41.9609 60.66 42.8809 59.04C43.8009 57.4 45.0509 56.12 46.6309 55.2C48.2309 54.28 50.0009 53.82 51.9409 53.82C54.2209 53.82 56.2109 54.37 57.9109 55.47C59.6109 56.57 60.8509 58.13 61.6309 60.15H58.3609C57.7809 58.89 56.9409 57.92 55.8409 57.24C54.7609 56.56 53.4609 56.22 51.9409 56.22C50.4809 56.22 49.1709 56.56 48.0109 57.24C46.8509 57.92 45.9409 58.89 45.2809 60.15C44.6209 61.39 44.2909 62.85 44.2909 64.53C44.2909 66.19 44.6209 67.65 45.2809 68.91C45.9409 70.15 46.8509 71.11 48.0109 71.79C49.1709 72.47 50.4809 72.81 51.9409 72.81C53.4609 72.81 54.7609 72.48 55.8409 71.82C56.9409 71.14 57.7809 70.17 58.3609 68.91H61.6309C60.8509 70.91 59.6109 72.46 57.9109 73.56C56.2109 74.64 54.2209 75.18 51.9409 75.18C50.0009 75.18 48.2309 74.73 46.6309 73.83C45.0509 72.91 43.8009 71.64 42.8809 70.02C41.9609 68.4 41.5009 66.57 41.5009 64.53ZM68.4248 61.23C68.9048 60.29 69.5848 59.56 70.4648 59.04C71.3648 58.52 72.4548 58.26 73.7348 58.26V61.08H73.0148C69.9548 61.08 68.4248 62.74 68.4248 66.06V75H65.6948V58.56H68.4248V61.23ZM91.0462 58.56L81.1462 82.74H78.3262L81.5662 74.82L74.9362 58.56H77.9662L83.1262 71.88L88.2262 58.56H91.0462ZM96.5205 61.59C97.0605 60.65 97.8605 59.87 98.9205 59.25C100 58.61 101.25 58.29 102.67 58.29C104.13 58.29 105.45 58.64 106.63 59.34C107.83 60.04 108.77 61.03 109.45 62.31C110.13 63.57 110.47 65.04 110.47 66.72C110.47 68.38 110.13 69.86 109.45 71.16C108.77 72.46 107.83 73.47 106.63 74.19C105.45 74.91 104.13 75.27 102.67 75.27C101.27 75.27 100.03 74.96 98.9505 74.34C97.8905 73.7 97.0805 72.91 96.5205 71.97V82.8H93.7905V58.56H96.5205V61.59ZM107.68 66.72C107.68 65.48 107.43 64.4 106.93 63.48C106.43 62.56 105.75 61.86 104.89 61.38C104.05 60.9 103.12 60.66 102.1 60.66C101.1 60.66 100.17 60.91 99.3105 61.41C98.4705 61.89 97.7905 62.6 97.2705 63.54C96.7705 64.46 96.5205 65.53 96.5205 66.75C96.5205 67.99 96.7705 69.08 97.2705 70.02C97.7905 70.94 98.4705 71.65 99.3105 72.15C100.17 72.63 101.1 72.87 102.1 72.87C103.12 72.87 104.05 72.63 104.89 72.15C105.75 71.65 106.43 70.94 106.93 70.02C107.43 69.08 107.68 67.98 107.68 66.72ZM117.394 60.81V70.5C117.394 71.3 117.564 71.87 117.904 72.21C118.244 72.53 118.834 72.69 119.674 72.69H121.684V75H119.224C117.704 75 116.564 74.65 115.804 73.95C115.044 73.25 114.664 72.1 114.664 70.5V60.81H112.534V58.56H114.664V54.42H117.394V58.56H121.684V60.81H117.394Z" fill="white"/>
<path d="M8.2 63.6C8.2 61.9 8.20093 60.6972 8.27776 59.7569C8.35344 58.8306 8.49675 58.2652 8.72317 57.8208C9.18336 56.9177 9.91767 56.1834 10.8208 55.7232C11.2652 55.4967 11.8306 55.3534 12.7569 55.2778C13.6972 55.2009 14.9 55.2 16.6 55.2H22.8V73.8H16.6C14.9 73.8 13.6972 73.7991 12.7569 73.7222C11.8306 73.6466 11.2652 73.5033 10.8208 73.2768C9.91767 72.8166 9.18336 72.0823 8.72317 71.1792C8.49675 70.7348 8.35344 70.1694 8.27776 69.2431C8.20093 68.3028 8.2 67.1 8.2 65.4V63.6Z" stroke="white" stroke-width="2.4"/>
<line x1="11" y1="65" x2="15" y2="65" stroke="white" stroke-width="2"/>
<circle cx="64" cy="64" r="62.8" stroke="white" stroke-width="2.4"/>
</svg>
